HIERARCHY
ROOT reference
{
  OFFSET 0 0 0
  CHANNELS 6 Xposition Yposition Zposition Zrotation Xrotation Yrotation
  JOINT Hips
  {
    OFFSET 21.0812 52.6014 -12.9849
    CHANNELS 6 Xposition Yposition Zposition Zrotation Xrotation Yrotation
    JOINT Spine
    {
      OFFSET 0 7.52385 0
      CHANNELS 6 Xposition Yposition Zposition Zrotation Xrotation Yrotation
      JOINT Spine1
      {
        OFFSET 0 21.7843 0
        CHANNELS 6 Xposition Yposition Zposition Zrotation Xrotation Yrotation
        JOINT Neck
        {
          OFFSET 0 21.6948 1.97225
          CHANNELS 6 Xposition Yposition Zposition Zrotation Xrotation Yrotation
          JOINT Head
          {
            OFFSET 0 12.8456 -1.83509
            CHANNELS 6 Xposition Yposition Zposition Zrotation Xrotation Yrotation
            End Site
            {
              OFFSET 0 22.9386 0
            }
          }
        }
        JOINT LeftShoulder
        {
          OFFSET 3.65748 19.7052 -0.211895
          CHANNELS 6 Xposition Yposition Zposition Zrotation Xrotation Yrotation
          JOINT LeftArm
          {
            OFFSET 11.1953 0 0
            CHANNELS 6 Xposition Yposition Zposition Zrotation Xrotation Yrotation
            JOINT LeftForeArm
            {
              OFFSET 29.6607 0 0
              CHANNELS 6 Xposition Yposition Zposition Zrotation Xrotation Yrotation
              JOINT LeftHand
              {
                OFFSET 23.3476 0 0
                CHANNELS 6 Xposition Yposition Zposition Zrotation Xrotation Yrotation
                End Site
                {
                  OFFSET 13.7631 0 0
                }
              }
            }
          }
        }
        JOINT RightShoulder
        {
          OFFSET -3.68053 19.7052 -0.211895
          CHANNELS 6 Xposition Yposition Zposition Zrotation Xrotation Yrotation
          JOINT RightArm
          {
            OFFSET -11.1953 0 0
            CHANNELS 6 Xposition Yposition Zposition Zrotation Xrotation Yrotation
            JOINT RightForeArm
            {
              OFFSET -29.6607 0 0
              CHANNELS 6 Xposition Yposition Zposition Zrotation Xrotation Yrotation
              JOINT RightHand
              {
                OFFSET -23.3476 0 0
                CHANNELS 6 Xposition Yposition Zposition Zrotation Xrotation Yrotation
                End Site
                {
                  OFFSET -13.7631 0 0
                }
              }
            }
          }
        }
      }
    }
    JOINT LeftUpLeg
    {
      OFFSET 9.17543 0 0
      CHANNELS 6 Xposition Yposition Zposition Zrotation Xrotation Yrotation
      JOINT LeftLeg
      {
        OFFSET 0 -39.1216 0
        CHANNELS 6 Xposition Yposition Zposition Zrotation Xrotation Yrotation
        JOINT LeftFoot
        {
          OFFSET 0 -35.3569 0
          CHANNELS 6 Xposition Yposition Zposition Zrotation Xrotation Yrotation
          JOINT LeftToeBase
          {
            OFFSET 0 -5.96403 13.7631
            CHANNELS 6 Xposition Yposition Zposition Zrotation Xrotation Yrotation
            End Site
            {
              OFFSET 0 0 3.67017
            }
          }
        }
      }
    }
    JOINT RightUpLeg
    {
      OFFSET -9.17543 0 0
      CHANNELS 6 Xposition Yposition Zposition Zrotation Xrotation Yrotation
      JOINT RightLeg
      {
        OFFSET 0 -39.1216 0
        CHANNELS 6 Xposition Yposition Zposition Zrotation Xrotation Yrotation
        JOINT RightFoot
        {
          OFFSET 0 -35.3569 0
          CHANNELS 6 Xposition Yposition Zposition Zrotation Xrotation Yrotation
          JOINT RightToeBase
          {
            OFFSET 0 -5.96403 13.7631
            CHANNELS 6 Xposition Yposition Zposition Zrotation Xrotation Yrotation
            End Site
            {
              OFFSET 0 0 3.67017
            }
          }
        }
      }
    }
  }
}
MOTION
Frames:	10
Frame Time:	0.004
0 0 0 0 0 -0 1.04669 48.8326 -175.854 -4.22901 -14.084 1.53033 0 7.52385 2.84217e-014 6.43558 53.0116 -9.22854 1.77636e-015 21.7843 2.84217e-014 -7.50737 22.5093 -4.52024 0 21.6948 1.97225 -0.227267 16.7605 19.819 0 12.8456 -1.83509 -15.5291 -23.674 15.3702 3.65748 19.7052 -0.211895 1.39137 10.4834 -17.9265 11.1953 1.42109e-014 2.84217e-014 -34.7171 3.04892 -27.7219 29.6607 -1.42109e-014 0 58.6223 -37.2047 -45.5082 23.3476 0 -5.32907e-015 4.15332 -12.436 2.72074 -3.68053 19.7052 -0.211895 4.48755 20.7539 3.32166 -11.1953 -2.84217e-014 0 36.275 42.5873 30.1279 -29.6607 0 0 -22.3965 -23.867 47.9786 -23.3476 0 0 -5.32438 -14.1437 -3.78922 9.17543 0 2.84217e-014 -4.96735 -38.4247 -9.62032 -1.77636e-015 -39.1216 -1.42109e-014 -159.166 71.1767 143.414 0 -35.3569 -1.42109e-014 27.6543 -42.7211 30.2934 -8.88178e-016 -5.96403 13.7631 2.48481e-016 -1.59028e-015 7.95139e-016 -9.17543 0 2.84217e-014 -8.02744 -63.976 -3.67511 0 -39.1216 0 124.766 73.8585 -109.859 3.55271e-015 -35.3569 0 -0.050966 -25.93 -19.8669 0 -5.96403 13.7631 3.97569e-016 -7.95139e-016 -0 
0 0 0 0 0 -0 1.00049 48.7931 -175.649 -4.30308 -14.2404 1.60833 -4.44089e-016 7.52385 0 6.49416 52.8764 -9.34797 1.77636e-015 21.7843 2.84217e-014 -7.45986 22.6908 -4.61714 3.55271e-015 21.6948 1.97225 0.020472 16.7015 20.0323 3.55271e-015 12.8456 -1.83509 -15.9928 -23.3174 15.4866 3.65748 19.7052 -0.211895 1.42149 10.4138 -17.9455 11.1953 -2.84217e-014 -1.42109e-014 -34.6226 3.48751 -27.6599 29.6607 1.42109e-014 0 59.5769 -37.478 -44.6505 23.3476 7.10543e-015 1.77636e-015 4.2432 -12.8154 2.77656 -3.68053 19.7052 -0.211895 4.69787 20.7763 3.17728 -11.1953 0 0 36.16 42.8007 30.1681 -29.6607 0 0 -22.3443 -23.8204 47.9264 -23.3476 0 2.84217e-014 -5.02852 -14.1268 -4.08444 9.17543 0 0 -5.08017 -38.1502 -9.44407 0 -39.1216 0 -159.963 71.2943 145.555 -3.55271e-015 -35.3569 -1.42109e-014 26.9997 -43.3058 29.374 0 -5.96403 13.7631 4.96962e-017 7.95139e-016 -1.98785e-016 -9.17543 0 0 -7.80402 -64.1314 -3.50504 -3.55271e-015 -39.1216 -7.10543e-015 122.272 74.2823 -107.54 0 -35.3569 0 -0.0267885 -25.5312 -19.6739 0 -5.96403 13.7631 -5.96354e-016 7.95139e-016 3.18055e-015 
0 0 0 0 0 -0 0.957219 48.7545 -175.45 -4.35885 -14.3554 1.69294 1.77636e-015 7.52385 -2.84217e-014 6.55736 52.7294 -9.47833 0 21.7843 -2.84217e-014 -7.43091 22.8366 -4.72248 0 21.6948 1.97225 0.0322061 16.7791 20.1249 -3.55271e-015 12.8456 -1.83509 -16.1247 -23.3471 15.5354 3.65748 19.7052 -0.211895 1.49216 10.3685 -17.9537 11.1953 2.84217e-014 -1.42109e-014 -34.663 3.33498 -27.6223 29.6607 0 0 59.7447 -37.5813 -44.6108 23.3476 -7.10543e-015 -1.77636e-015 4.31732 -12.8675 2.94005 -3.68053 19.7052 -0.211895 4.70314 20.6452 3.08422 -11.1953 2.84217e-014 -1.42109e-014 36.4555 43.1107 30.0509 -29.6607 0 0 -22.2657 -23.6678 47.8227 -23.3476 2.84217e-014 2.84217e-014 -5.4884 -14.0144 -3.95475 9.17543 -2.84217e-014 0 -5.003 -37.926 -9.37555 -3.55271e-015 -39.1216 -1.42109e-014 -160.123 71.1238 145.8 3.55271e-015 -35.3569 1.42109e-014 27.1329 -43.3583 29.5046 -4.44089e-016 -5.96403 13.7631 3.72721e-016 7.95139e-016 -3.97569e-016 -9.17543 -1.42109e-014 2.84217e-014 -7.69578 -64.3183 -3.33967 -3.55271e-015 -39.1216 1.06581e-014 119.426 74.594 -104.651 0 -35.3569 2.84217e-014 0.0883065 -25.0766 -19.6372 0 -5.96403 13.7631 1.19271e-015 0 -0 
0 0 0 0 0 -0 0.89888 48.709 -175.229 -4.47626 -14.5218 1.76641 8.88178e-016 7.52385 -2.84217e-014 6.56038 52.6857 -9.53584 3.55271e-015 21.7843 0 -7.24388 22.866 -4.8176 0 21.6948 1.97225 0.00472422 16.8549 20.2502 0 12.8456 -1.83509 -16.2625 -23.2612 15.6324 3.65748 19.7052 -0.211895 1.46497 10.4017 -17.954 11.1953 0 1.42109e-014 -34.637 3.30368 -27.6171 29.6607 1.42109e-014 0 60.0968 -37.6742 -44.3809 23.3476 -7.10543e-015 0 4.3584 -12.951 2.71265 -3.68053 19.7052 -0.211895 4.83789 20.8156 2.80134 -11.1953 2.84217e-014 -1.42109e-014 36.2742 43.2825 30.2611 -29.6607 0 0 -22.1711 -23.6209 47.7246 -23.3476 0 0 -4.93202 -14.0539 -3.82644 9.17543 -1.42109e-014 -2.84217e-014 -4.73625 -37.6171 -9.31097 0 -39.1216 -1.42109e-014 -160.055 70.9667 145.037 -3.55271e-015 -35.3569 1.42109e-014 27.9705 -43.2296 30.3743 4.44089e-016 -5.96403 13.7631 1.49089e-016 7.95139e-016 1.98785e-016 -9.17543 -1.42109e-014 0 -7.43357 -64.4575 -3.09179 0 -39.1216 0 116.535 74.9228 -101.79 3.55271e-015 -35.3569 0 0.387451 -24.5315 -19.5395 -3.55271e-015 -5.96403 13.7631 3.97569e-016 -7.95139e-016 -1.59028e-015 
0 0 0 0 0 -0 0.829081 48.6625 -175.001 -4.51634 -14.6361 1.877 8.88178e-016 7.52385 -2.84217e-014 6.74004 52.5049 -9.79257 0 21.7843 0 -7.43229 22.9565 -4.95399 -3.55271e-015 21.6948 1.97225 0.11751 16.9724 20.4008 0 12.8456 -1.83509 -16.3254 -23.2518 15.7716 3.65748 19.7052 -0.211895 1.72405 10.4426 -17.8352 11.1953 1.42109e-014 -2.84217e-014 -34.7279 3.09575 -27.6507 29.6607 -1.42109e-014 -1.42109e-014 60.2763 -37.7413 -44.3592 23.3476 0 3.55271e-015 4.13065 -12.9535 2.70081 -3.68053 19.7052 -0.211895 5.03171 20.947 2.72797 -11.1953 -2.84217e-014 0 36.2799 43.4875 30.3588 -29.6607 2.84217e-014 0 -22.0929 -23.5569 47.6167 -23.3476 -2.84217e-014 0 -4.68193 -14.0503 -3.91937 9.17543 -1.42109e-014 0 -4.70438 -37.4225 -9.16092 0 -39.1216 1.42109e-014 -160.942 70.7526 146.173 3.55271e-015 -35.3569 0 27.7017 -43.2987 30.0949 0 -5.96403 13.7631 -3.47873e-016 1.59028e-015 1.98785e-016 -9.17543 -1.42109e-014 0 -7.25209 -64.6346 -3.05801 0 -39.1216 -3.55271e-015 113.995 75.36 -99.4474 -3.55271e-015 -35.3569 0 1.12789 -24.0463 -19.287 3.55271e-015 -5.96403 13.7631 1.59028e-015 1.59028e-015 -1.59028e-015 
0 0 0 0 0 -0 0.775699 48.6254 -174.803 -4.61483 -14.7481 1.94603 0 7.52385 0 6.90728 52.427 -10.003 0 21.7843 2.84217e-014 -7.47487 22.9564 -5.07886 3.55271e-015 21.6948 1.97225 0.0775694 17.1233 20.5209 1.77636e-015 12.8456 -1.83509 -16.3565 -23.32 15.8777 3.65748 19.7052 -0.211895 1.7353 10.4556 -17.7497 11.1953 0 0 -34.7853 2.55637 -27.6016 29.6607 0 0 59.8575 -37.704 -44.9365 23.3476 -7.10543e-015 -1.77636e-015 3.87284 -12.7505 2.6129 -3.68053 19.7052 -0.211895 5.07829 20.9054 2.67659 -11.1953 0 0 36.5773 43.6452 30.2463 -29.6607 0 0 -21.9452 -23.3033 47.527 -23.3476 2.84217e-014 0 -4.96927 -13.8664 -3.74021 9.17543 0 2.84217e-014 -4.61171 -37.2279 -9.04052 1.77636e-015 -39.1216 0 -161.443 70.543 147.013 0 -35.3569 1.42109e-014 27.5046 -43.4104 29.907 0 -5.96403 13.7631 1.98785e-016 -7.95139e-016 1.98785e-016 -9.17543 0 0 -6.95546 -64.7862 -2.79433 -3.55271e-015 -39.1216 -3.55271e-015 110.913 75.6849 -96.6032 3.55271e-015 -35.3569 -2.84217e-014 1.55157 -23.3507 -18.9348 0 -5.96403 13.7631 1.59028e-015 0 -3.18055e-015 
0 0 0 0 0 -0 0.718838 48.5871 -174.601 -4.72212 -14.8619 2.04905 -1.33227e-015 7.52385 0 7.04115 52.3104 -10.1959 0 21.7843 2.84217e-014 -7.43731 23.0462 -5.21619 -3.55271e-015 21.6948 1.97225 0.0292158 17.1793 20.6258 0 12.8456 -1.83509 -16.3732 -23.3362 15.9797 3.65748 19.7052 -0.211895 1.85551 10.4519 -17.9095 11.1953 0 -1.42109e-014 -34.8717 2.32804 -27.3895 29.6607 -1.42109e-014 0 60.5121 -37.7335 -44.5619 23.3476 7.10543e-015 0 3.18846 -12.6942 2.54907 -3.68053 19.7052 -0.211895 5.06747 20.9019 2.70592 -11.1953 0 -1.42109e-014 36.9373 43.7777 30.0578 -29.6607 0 0 -21.9233 -23.2127 47.4312 -23.3476 -2.84217e-014 0 -4.27444 -13.825 -3.7163 9.17543 0 0 -4.48213 -37.0304 -8.95472 0 -39.1216 -1.42109e-014 -161.883 70.324 147.497 0 -35.3569 -1.42109e-014 27.6104 -43.3808 29.9862 -8.88178e-016 -5.96403 13.7631 5.46658e-016 7.95139e-016 3.97569e-016 -9.17543 1.42109e-014 0 -6.64229 -64.9355 -2.59813 0 -39.1216 0 107.716 76.093 -93.8659 3.55271e-015 -35.3569 0 1.9688 -22.5566 -18.5345 0 -5.96403 13.7631 2.5842e-015 0 -0 
0 0 0 0 0 -0 0.670357 48.5482 -174.406 -4.8229 -14.9831 2.12176 -4.44089e-016 7.52385 0 7.14233 52.2237 -10.3639 -3.55271e-015 21.7843 0 -7.40203 23.1135 -5.34375 -3.55271e-015 21.6948 1.97225 -0.0555241 17.2372 20.7377 0 12.8456 -1.83509 -16.3294 -23.3662 16.107 3.65748 19.7052 -0.211895 1.84453 10.4008 -17.8391 11.1953 0 0 -34.8771 2.14838 -27.3685 29.6607 -1.42109e-014 0 60.6048 -37.7661 -44.569 23.3476 0 1.77636e-015 3.19794 -12.6778 2.50288 -3.68053 19.7052 -0.211895 5.14431 20.8414 2.50144 -11.1953 -2.84217e-014 0 36.9511 44.0736 30.1677 -29.6607 -1.42109e-014 1.42109e-014 -21.9005 -23.0525 47.2782 -23.3476 1.42109e-014 0 -4.05745 -13.7125 -3.56793 9.17543 0 2.84217e-014 -4.33362 -36.8012 -8.89826 -8.88178e-016 -39.1216 -1.42109e-014 -162.1 70.0773 147.439 -3.55271e-015 -35.3569 0 27.9573 -43.2866 30.4821 -4.44089e-016 -5.96403 13.7631 2.23633e-016 -3.18055e-015 9.93923e-017 -9.17543 0 0 -6.32296 -65.0299 -2.20404 0 -39.1216 3.55271e-015 104.107 76.305 -90.5077 0 -35.3569 0 3.1451 -21.8694 -18.1141 0 -5.96403 13.7631 3.97569e-016 1.59028e-015 -1.59028e-015 
0 0 0 0 0 -0 0.605113 48.4915 -174.226 -4.97959 -14.9945 2.24052 8.88178e-016 7.52385 -2.84217e-014 7.29674 51.9851 -10.5439 0 21.7843 0 -7.33801 23.2294 -5.47205 0 21.6948 1.97225 -0.136119 17.2974 20.8365 -3.55271e-015 12.8456 -1.83509 -16.2712 -23.4153 16.2229 3.65748 19.7052 -0.211895 1.87764 10.34 -17.7967 11.1953 1.42109e-014 0 -34.893 2.0335 -27.3308 29.6607 -1.42109e-014 0 60.8442 -37.833 -44.4531 23.3476 -7.10543e-015 1.77636e-015 2.93369 -12.7175 2.27214 -3.68053 19.7052 -0.211895 5.20527 20.8734 2.3498 -11.1953 0 -1.42109e-014 37.0133 44.2227 30.2534 -29.6607 -2.84217e-014 0 -21.8224 -22.9287 47.2135 -23.3476 0 0 -3.77901 -13.6359 -3.68028 9.17543 0 0 -4.13188 -36.6069 -8.87434 0 -39.1216 0 -162.38 69.8815 147.615 0 -35.3569 -1.42109e-014 28.2363 -43.7105 30.9387 4.44089e-016 -5.96403 13.7631 4.96962e-017 -3.18055e-015 -0 -9.17543 -1.42109e-014 -2.84217e-014 -6.14808 -65.2313 -2.16129 0 -39.1216 3.55271e-015 100.766 76.5475 -87.0965 0 -35.3569 0 3.57031 -21.1081 -18.2373 3.55271e-015 -5.96403 13.7631 3.97569e-015 0 -0 
0 0 0 0 0 -0 0.557689 48.4568 -174.016 -5.06746 -15.0818 2.2893 -8.88178e-016 7.52385 0 7.3688 51.8302 -10.6844 0 21.7843 -2.84217e-014 -7.35531 23.3316 -5.57916 -3.55271e-015 21.6948 1.97225 -0.167099 17.3496 20.9519 0 12.8456 -1.83509 -16.2468 -23.4113 16.3526 3.65748 19.7052 -0.211895 1.99285 10.2449 -17.8329 11.1953 2.84217e-014 0 -35.0216 1.91891 -27.183 29.6607 0 1.42109e-014 61.0602 -37.9298 -44.3896 23.3476 -7.10543e-015 0 3.09235 -12.7553 2.30857 -3.68053 19.7052 -0.211895 5.38972 20.9481 2.1083 -11.1953 0 1.42109e-014 36.8289 44.3941 30.4857 -29.6607 0 0 -21.7453 -22.7438 47.1318 -23.3476 -1.42109e-014 0 -4.01039 -13.4883 -3.61861 9.17543 -1.42109e-014 2.84217e-014 -4.01058 -36.4407 -8.77044 -8.88178e-016 -39.1216 0 -162.835 69.6504 148.078 3.55271e-015 -35.3569 0 28.0591 -43.7795 30.9845 -8.88178e-016 -5.96403 13.7631 -1.92573e-016 0 -0 -9.17543 0 0 -5.725 -65.3571 -1.81554 1.77636e-015 -39.1216 0 97.4781 76.9064 -84.4209 -3.55271e-015 -35.3569 0 4.60554 -20.2502 -17.5306 -3.55271e-015 -5.96403 13.7631 -7.95139e-016 0 -0 
